<svg width="100" height="5" viewBox="0 0 100 5" xmlns="http://www.w3.org/2000/svg">
  <defs>
    <linearGradient id="triangleGradient" x1="0%" y1="0%" x2="100%" y2="0%">
      <stop offset="0%" stop-color="#FACC15" />
      <stop offset="50%" stop-color="#FFFFFF" />
      <stop offset="100%" stop-color="#FACC15" />
    </linearGradient>
  </defs>
  
  <!-- Base line -->
  <rect x="0" y="0" width="100%" height="1" fill="url(#triangleGradient)" opacity="0.8" />
  
  <!-- Triangle pattern -->
  <path d="M0,1 L2.5,4 L5,1 L7.5,4 L10,1 L12.5,4 L15,1 L17.5,4 L20,1 L22.5,4 L25,1 L27.5,4 L30,1 L32.5,4 L35,1 L37.5,4 L40,1 L42.5,4 L45,1 L47.5,4 L50,1 L52.5,4 L55,1 L57.5,4 L60,1 L62.5,4 L65,1 L67.5,4 L70,1 L72.5,4 L75,1 L77.5,4 L80,1 L82.5,4 L85,1 L87.5,4 L90,1 L92.5,4 L95,1 L97.5,4 L100,1" 
        stroke="url(#triangleGradient)" stroke-width="0.5" fill="none" />
</svg> 